<svg width="32" height="33" viewBox="0 0 32 33" fill="none" xmlns="http://www.w3.org/2000/svg">
<path d="M13.1882 31C14.6449 31 15.8258 29.8191 15.8258 28.3624C15.8258 26.9057 14.6449 25.7248 13.1882 25.7248C11.7314 25.7248 10.5505 26.9057 10.5505 28.3624C10.5505 29.8191 11.7314 31 13.1882 31Z" stroke="black" stroke-width="3" stroke-miterlimit="10"/>
<path d="M25.0505 31C26.5072 31 27.6881 29.8191 27.6881 28.3624C27.6881 26.9057 26.5072 25.7248 25.0505 25.7248C23.5937 25.7248 22.4128 26.9057 22.4128 28.3624C22.4128 29.8191 23.5937 31 25.0505 31Z" stroke="black" stroke-width="3" stroke-miterlimit="10"/>
<path d="M0 2.00001H3.67333C4.51567 1.99853 5.33658 2.26546 6.01696 2.76209C6.69733 3.25871 7.20178 3.95919 7.45713 4.76191L11.8624 19.1376H11.2133C10.338 19.1376 9.49849 19.4853 8.87953 20.1043C8.26057 20.7232 7.91284 21.5627 7.91284 22.4381C7.91649 23.311 8.26583 24.147 8.8844 24.7629C9.50296 25.3789 10.3404 25.7247 11.2133 25.7247H25.0228" stroke="black" stroke-width="3" stroke-miterlimit="10"/>
<path d="M9.23853 7.27516H30.3256V9.91278L27.688 19.1375H11.8623" stroke="black" stroke-width="3" stroke-miterlimit="10"/>
</svg>
