<svg width="38" height="48" viewBox="0 0 38 48" fill="none" xmlns="http://www.w3.org/2000/svg">
<path d="M18.5412 6.75662C16.2122 6.75662 13.9356 7.44718 11.999 8.74097C10.0625 10.0348 8.55306 11.8737 7.66158 14.0253C6.77009 16.1769 6.53658 18.5445 6.99056 20.8288C7.44455 23.113 8.56565 25.2114 10.2121 26.8586C11.8586 28.5058 13.9565 29.6278 16.2406 30.0828C18.5246 30.5377 20.8924 30.3053 23.0443 29.4147C25.1963 28.5241 27.0359 27.0155 28.3305 25.0795C29.6252 23.1436 30.3167 20.8672 30.3177 18.5383C30.3137 15.4157 29.0718 12.4221 26.8643 10.2137C24.6568 8.0052 21.6637 6.76203 18.5412 6.75662ZM18.5412 28.8287C16.5047 28.8287 14.514 28.2247 12.8208 27.0932C11.1276 25.9617 9.80796 24.3534 9.02887 22.4719C8.24977 20.5903 8.04619 18.52 8.44386 16.5227C8.84153 14.5254 9.82259 12.691 11.263 11.2513C12.7033 9.81166 14.5383 8.83151 16.5358 8.43483C18.5332 8.03815 20.6035 8.24276 22.4846 9.02279C24.3658 9.80282 25.9734 11.1232 27.1041 12.817C28.2347 14.5107 28.8377 16.5018 28.8367 18.5383C28.8326 21.2671 27.7465 23.8829 25.8164 25.812C23.8864 27.7411 21.27 28.826 18.5412 28.8287Z" fill="#F1FA91"/>
<path d="M34.1632 14.4017C33.5982 14.2015 33.1089 13.8315 32.7624 13.3424C32.4159 12.8532 32.2291 12.2689 32.2277 11.6695C32.2298 11.2364 32.3274 10.8092 32.5137 10.4183C32.841 9.75711 32.9914 9.02241 32.9502 8.28582C32.9091 7.54922 32.6777 6.83586 32.2788 6.21529C31.7131 5.29337 30.8236 4.61586 29.7845 4.31547C28.7454 4.01507 27.6315 4.11344 26.6612 4.59129C26.2938 4.76507 25.8942 4.86028 25.488 4.87083C25.0817 4.88138 24.6777 4.80705 24.3018 4.65258C23.9228 4.49598 23.5817 4.25998 23.3015 3.96046C23.0214 3.66095 22.8087 3.30487 22.6778 2.91623C22.3733 2.0628 21.8124 1.32444 21.0718 0.802346C20.3312 0.280255 19.4473 0 18.5412 0C17.6351 0 16.7512 0.280255 16.0106 0.802346C15.27 1.32444 14.7091 2.0628 14.4046 2.91623C14.2703 3.30135 14.0565 3.65394 13.7772 3.95115C13.4979 4.24837 13.1592 4.48356 12.7832 4.64149C12.4071 4.79942 12.0021 4.87657 11.5943 4.86792C11.1865 4.85927 10.7851 4.76503 10.4161 4.59129C9.75322 4.26624 9.01771 4.11755 8.2806 4.1596C7.54349 4.20164 6.82967 4.43299 6.20803 4.83132C5.57911 5.22491 5.05918 5.77022 4.696 6.41717C4.33282 7.06412 4.13802 7.79195 4.12952 8.53382C4.13208 9.19253 4.28399 9.84207 4.57382 10.4336C4.75659 10.8255 4.85241 11.2523 4.8547 11.6848C4.8539 12.2856 4.66754 12.8715 4.32109 13.3624C3.97464 13.8533 3.48502 14.2252 2.91918 14.4272C2.0652 14.7304 1.32607 15.2906 0.803353 16.0308C0.280639 16.7711 0 17.655 0 18.5612C0 19.4674 0.280639 20.3514 0.803353 21.0916C1.32607 21.8319 2.0652 22.3921 2.91918 22.6953C3.48501 22.8989 3.97438 23.2718 4.3207 23.7635C4.66702 24.2551 4.85348 24.8414 4.8547 25.4428C4.85399 25.8705 4.75804 26.2927 4.57382 26.6787C4.24579 27.3403 4.09456 28.0756 4.13483 28.813C4.1751 29.5503 4.4055 30.2648 4.80363 30.8868C5.12079 31.3877 5.53415 31.8207 6.01978 32.1609C6.50542 32.501 7.05368 32.7414 7.63285 32.8682L3.27155 43.46C3.21836 43.5884 3.20213 43.7291 3.22469 43.8663C3.24725 44.0035 3.3077 44.1316 3.39923 44.2362C3.49187 44.3387 3.61084 44.4138 3.74319 44.4534C3.87554 44.4931 4.01622 44.4956 4.14994 44.4609L9.25685 43.0718L11.892 47.6272C11.9565 47.7409 12.05 47.8354 12.1631 47.9009C12.2763 47.9664 12.4048 48.0006 12.5355 48H12.5814C12.7199 47.9899 12.8529 47.9416 12.9656 47.8605C13.0783 47.7793 13.1663 47.6685 13.2198 47.5404L17.5709 36.9589C17.9055 37.0382 18.2484 37.0777 18.5923 37.0763C18.8909 37.0766 19.1887 37.0458 19.4809 36.9844L23.7656 47.5404C23.819 47.6685 23.907 47.7793 24.0197 47.8605C24.1324 47.9416 24.2654 47.9899 24.4039 48H24.455C24.5856 48.0001 24.7139 47.9657 24.8269 47.9002C24.9399 47.8348 25.0336 47.7406 25.0985 47.6272L27.7336 43.0718L32.8405 44.4609C32.9769 44.4994 33.1215 44.4983 33.2572 44.4576C33.393 44.4169 33.5143 44.3383 33.607 44.2311C33.6998 44.1239 33.76 43.9926 33.7807 43.8524C33.8015 43.7122 33.7818 43.569 33.724 43.4395L29.3372 32.8631C30.3433 32.6723 31.2525 32.1394 31.9106 31.3547C32.5686 30.5701 32.9351 29.582 32.9478 28.558C32.9493 27.8994 32.799 27.2493 32.5086 26.6582C32.3248 26.2683 32.2272 25.8432 32.2226 25.4121C32.2245 24.8109 32.4119 24.2249 32.7592 23.734C33.1065 23.2432 33.5968 22.8716 34.1632 22.6697C35.0172 22.3666 35.7563 21.8064 36.2791 21.0661C36.8018 20.3259 37.0824 19.4419 37.0824 18.5357C37.0824 17.6295 36.8018 16.7455 36.2791 16.0053C35.7563 15.265 35.0172 14.7048 34.1632 14.4017ZM12.4129 45.5793L10.2476 41.8308C10.1661 41.6886 10.0394 41.5777 9.88767 41.5157C9.73593 41.4537 9.56782 41.4442 9.41006 41.4887L5.23261 42.6275L9.2211 32.8836C9.63469 32.8122 10.0367 32.6851 10.4161 32.5056C10.738 32.356 11.0838 32.2643 11.4375 32.235C11.5191 32.2297 11.601 32.2297 11.6826 32.235C12.2821 32.2364 12.8664 32.4231 13.3555 32.7697C13.8447 33.1162 14.2147 33.6055 14.4148 34.1705C14.7327 35.098 15.3579 35.889 16.1869 36.4124L12.4129 45.5793ZM31.763 42.6275L27.5906 41.4887C27.4321 41.4448 27.2635 41.4545 27.1111 41.5164C26.9587 41.5783 26.831 41.6889 26.748 41.8308L24.5674 45.5793L20.8189 36.4533C21.6869 35.9303 22.3432 35.1186 22.6727 34.1603C22.7961 33.8039 22.9868 33.4745 23.2344 33.19C23.5069 32.88 23.8424 32.6318 24.2184 32.4618C24.5944 32.2918 25.0024 32.2041 25.4151 32.2043H25.6092C25.974 32.2296 26.3309 32.3231 26.6612 32.4801C27.0023 32.6424 27.3627 32.7608 27.7336 32.8325L31.763 42.6275ZM33.6781 21.2756C32.825 21.5811 32.0868 22.1422 31.5641 22.8824C31.0413 23.6226 30.7595 24.506 30.7569 25.4121C30.7613 26.0656 30.9077 26.7104 31.1859 27.3017C31.3777 27.6927 31.4772 28.1225 31.477 28.558C31.4725 28.9612 31.3843 29.3591 31.2182 29.7265C31.0521 30.094 30.8115 30.4229 30.5118 30.6927C30.221 30.9621 29.8776 31.1683 29.5032 31.2984C29.1287 31.4285 28.7314 31.4796 28.3362 31.4485C27.9812 31.4162 27.6351 31.3193 27.3149 31.1625C26.4505 30.7509 25.4757 30.6319 24.5377 30.8236C23.5997 31.0152 22.7496 31.5071 22.116 32.2248C21.7502 32.6479 21.4646 33.1342 21.2734 33.6598C21.1412 34.0547 20.9234 34.4156 20.6356 34.7166C20.3478 35.0176 19.9971 35.2514 19.6085 35.4013C18.8912 35.6664 18.1006 35.6536 17.3921 35.3655C17.0195 35.2112 16.6843 34.9786 16.4094 34.6834C16.1345 34.3882 15.9262 34.0374 15.7988 33.6547C15.4933 32.803 14.9328 32.066 14.1935 31.5442C13.4543 31.0225 12.5722 30.7412 11.6673 30.7387C11.5295 30.7302 11.3914 30.7302 11.2536 30.7387C10.7441 30.789 10.2468 30.9255 9.78286 31.1421C9.4224 31.3137 9.03228 31.4142 8.63381 31.4383H8.51635C8.02329 31.4312 7.53992 31.3003 7.11069 31.0576C6.68145 30.8148 6.32013 30.4681 6.05993 30.0492C5.79787 29.6381 5.64694 29.1659 5.62188 28.679C5.59681 28.1921 5.69848 27.707 5.91693 27.2711C6.17778 26.7161 6.31978 26.1127 6.33385 25.4996C6.34792 24.8865 6.23374 24.2772 5.99863 23.7109C5.76351 23.1445 5.41266 22.6335 4.96855 22.2106C4.52444 21.7877 3.99687 21.4622 3.41965 21.2551C2.85527 21.0526 2.3672 20.6807 2.02216 20.1903C1.67713 19.6999 1.49195 19.1149 1.49195 18.5153C1.49195 17.9156 1.67713 17.3307 2.02216 16.8402C2.3672 16.3498 2.85527 15.978 3.41965 15.7754C4.27304 15.4709 5.01137 14.91 5.53343 14.1694C6.05548 13.4288 6.33571 12.5449 6.3357 11.6388C6.33414 10.9872 6.18944 10.3439 5.91183 9.75438C5.5929 9.11083 5.52827 8.37071 5.73083 7.68163C5.93339 6.99254 6.38825 6.40513 7.0047 6.03655C7.41512 5.77568 7.88565 5.6246 8.37122 5.59777C8.85678 5.57094 9.3411 5.66927 9.77775 5.88334C10.3329 6.14602 10.9369 6.28962 11.5509 6.30491C12.1649 6.3202 12.7753 6.20685 13.3429 5.97212C13.9104 5.7374 14.4226 5.38652 14.8464 4.94202C15.2703 4.49752 15.5964 3.96925 15.8039 3.39117C16.0052 2.82624 16.3763 2.33741 16.8664 1.99176C17.3565 1.6461 17.9415 1.46055 18.5412 1.46055C19.1409 1.46055 19.7259 1.6461 20.216 1.99176C20.7061 2.33741 21.0772 2.82624 21.2785 3.39117C21.4843 3.96935 21.809 4.49799 22.2316 4.94298C22.6543 5.38798 23.1655 5.73946 23.7323 5.97475C24.2991 6.21004 24.909 6.32393 25.5225 6.30907C26.1361 6.2942 26.7397 6.15091 27.2944 5.88845C27.939 5.57044 28.6795 5.5063 29.3691 5.70873C30.0587 5.91117 30.647 6.3654 31.0174 6.98133C31.2802 7.39204 31.4321 7.86392 31.458 8.35086C31.484 8.8378 31.3832 9.32315 31.1655 9.75948C30.8883 10.3492 30.7437 10.9924 30.7416 11.6439C30.743 12.5498 31.0245 13.433 31.5474 14.1726C32.0704 14.9122 32.8092 15.4721 33.6628 15.7754C34.2271 15.978 34.7152 16.3498 35.0602 16.8402C35.4053 17.3307 35.5905 17.9156 35.5905 18.5153C35.5905 19.1149 35.4053 19.6999 35.0602 20.1903C34.7152 20.6807 34.2271 21.0526 33.6628 21.2551L33.6781 21.2756Z" fill="#F1FA91"/>
<path d="M19.2052 9.69821C19.144 9.57438 19.0494 9.47012 18.9321 9.39723C18.8148 9.32434 18.6794 9.28571 18.5413 9.28571C18.4031 9.28571 18.2678 9.32434 18.1505 9.39723C18.0331 9.47012 17.9385 9.57438 17.8774 9.69821L15.4771 14.6213L10.0638 15.4077C9.92716 15.4284 9.79895 15.4866 9.69348 15.5759C9.58801 15.6652 9.50944 15.7821 9.46653 15.9135C9.42363 16.0448 9.41808 16.1855 9.4505 16.3199C9.48292 16.4542 9.55204 16.5769 9.65014 16.6742L13.5671 20.4942L12.6224 25.882C12.5984 26.0187 12.6133 26.1593 12.6654 26.2879C12.7175 26.4165 12.8047 26.5278 12.9171 26.6093C13.0294 26.6907 13.1623 26.739 13.3007 26.7485C13.4392 26.7581 13.5775 26.7286 13.6999 26.6634L18.5413 24.1099L23.3826 26.6634C23.5049 26.7272 23.6426 26.7555 23.7802 26.7453C23.9177 26.735 24.0497 26.6866 24.1612 26.6053C24.2727 26.5241 24.3593 26.4133 24.4112 26.2855C24.4631 26.1577 24.4783 26.018 24.4551 25.882L23.5307 20.4942L27.4477 16.6742C27.5478 16.5781 27.6186 16.4557 27.652 16.3211C27.6855 16.1864 27.6801 16.0451 27.6367 15.9133C27.594 15.7813 27.5156 15.6637 27.4101 15.5735C27.3046 15.4834 27.1762 15.4242 27.0392 15.4026L21.6054 14.6213L19.2052 9.69821ZM22.2182 19.6822C22.1323 19.7657 22.0678 19.8688 22.0305 19.9826C21.9931 20.0965 21.9839 20.2177 22.0037 20.3359L22.7391 24.6308L18.8834 22.588C18.777 22.5325 18.6587 22.5036 18.5387 22.5036C18.4187 22.5036 18.3004 22.5325 18.194 22.588L14.3383 24.6308L15.0788 20.3359C15.0986 20.2177 15.0894 20.0965 15.0521 19.9826C15.0147 19.8688 14.9503 19.7657 14.8643 19.6822L11.744 16.6181L16.0542 15.9899C16.1724 15.9719 16.2846 15.9258 16.3814 15.8557C16.4782 15.7855 16.5569 15.6932 16.6109 15.5865L18.5413 11.741L20.4666 15.6478C20.521 15.7551 20.6005 15.8478 20.6982 15.918C20.796 15.9882 20.9092 16.0339 21.0283 16.0512L25.3334 16.6793L22.2182 19.6822Z" fill="#F1FA91"/>
</svg>
