<svg width="64" height="23" viewBox="0 0 64 23" fill="none" xmlns="http://www.w3.org/2000/svg">
<path d="M7.76902 22.39C6.70902 22.39 5.69902 22.21 4.73902 21.85C3.79902 21.47 2.96902 20.93 2.24902 20.23C1.54902 19.53 0.999024 18.68 0.599023 17.68C0.199023 16.66 -0.00097654 15.51 -0.00097654 14.23C-0.00097654 12.59 0.339024 11.19 1.01902 10.03C1.69902 8.85 2.59902 7.94 3.71902 7.3C4.85902 6.66 6.11902 6.34 7.49902 6.34C8.33902 6.34 9.13902 6.49 9.89902 6.79C10.659 7.09 11.339 7.51 11.939 8.05C12.539 8.57 13.009 9.17 13.349 9.85H13.409V0.0999994H15.509V14.38C15.509 16.08 15.159 17.53 14.459 18.73C13.759 19.93 12.819 20.84 11.639 21.46C10.479 22.08 9.18902 22.39 7.76902 22.39ZM7.79902 20.56C8.79902 20.56 9.71902 20.32 10.559 19.84C11.419 19.36 12.099 18.66 12.599 17.74C13.119 16.82 13.379 15.7 13.379 14.38C13.379 13.06 13.119 11.94 12.599 11.02C12.079 10.1 11.389 9.4 10.529 8.92C9.68902 8.42 8.75902 8.17 7.73902 8.17C6.73902 8.17 5.80902 8.42 4.94902 8.92C4.10902 9.42 3.42902 10.14 2.90902 11.08C2.38902 12 2.12902 13.09 2.12902 14.35C2.12902 15.65 2.38902 16.77 2.90902 17.71C3.42902 18.63 4.11902 19.34 4.97902 19.84C5.85902 20.32 6.79902 20.56 7.79902 20.56ZM27.0471 22.39C25.7671 22.39 24.5971 22.12 23.5371 21.58C22.4771 21.02 21.6271 20.23 20.9871 19.21C20.3671 18.19 20.0571 16.99 20.0571 15.61V6.7H22.1571V15.52C22.1571 16.58 22.3871 17.49 22.8471 18.25C23.3271 19.01 23.9371 19.59 24.6771 19.99C25.4171 20.37 26.2071 20.56 27.0471 20.56C27.9071 20.56 28.7071 20.36 29.4471 19.96C30.2071 19.56 30.8171 18.99 31.2771 18.25C31.7371 17.49 31.9671 16.58 31.9671 15.52V6.7H34.0671V15.61C34.0671 16.99 33.7471 18.19 33.1071 19.21C32.4871 20.23 31.6471 21.02 30.5871 21.58C29.5471 22.12 28.3671 22.39 27.0471 22.39ZM38.6299 22V11.05C38.6299 9.69 39.0099 8.63 39.7699 7.87C40.5499 7.09 41.6199 6.7 42.9799 6.7H45.6199V8.53H43.3999C42.5199 8.53 41.8499 8.77 41.3899 9.25C40.9499 9.73 40.7299 10.41 40.7299 11.29V22H38.6299ZM54.8686 22.39C53.3286 22.39 52.0086 22.03 50.9086 21.31C49.8086 20.59 48.9686 19.63 48.3886 18.43C47.8086 17.21 47.5186 15.85 47.5186 14.35C47.5186 12.83 47.8386 11.47 48.4786 10.27C49.1186 9.05 50.0286 8.09 51.2086 7.39C52.4086 6.69 53.8286 6.34 55.4686 6.34C57.0486 6.34 58.4086 6.69 59.5486 7.39C60.7086 8.09 61.5986 9.03 62.2186 10.21C62.8586 11.39 63.1786 12.72 63.1786 14.2V22H61.1086V18.58H61.0186C60.7386 19.18 60.3186 19.78 59.7586 20.38C59.1986 20.96 58.5086 21.44 57.6886 21.82C56.8886 22.2 55.9486 22.39 54.8686 22.39ZM55.3186 20.59C56.4386 20.59 57.4286 20.32 58.2886 19.78C59.1486 19.22 59.8286 18.47 60.3286 17.53C60.8286 16.57 61.0686 15.49 61.0486 14.29C61.0486 13.11 60.8186 12.06 60.3586 11.14C59.8986 10.22 59.2486 9.49 58.4086 8.95C57.5686 8.41 56.5686 8.14 55.4086 8.14C54.2086 8.14 53.1786 8.42 52.3186 8.98C51.4586 9.52 50.7986 10.27 50.3386 11.23C49.8786 12.17 49.6486 13.24 49.6486 14.44C49.6486 15.56 49.8686 16.59 50.3086 17.53C50.7486 18.47 51.3886 19.22 52.2286 19.78C53.0886 20.32 54.1186 20.59 55.3186 20.59Z" fill="white"/>
</svg>
