<svg width="241" height="40" viewBox="0 0 241 40" fill="none" xmlns="http://www.w3.org/2000/svg">
<path d="M39.9379 15.1748C39.7891 14.7304 39.4041 14.4066 38.9409 14.3353L26.6433 12.4564L21.1333 0.718829C20.927 0.280031 20.4858 0 20.0013 0C19.5169 0 19.0762 0.280031 18.8693 0.718829L13.3593 12.4564L1.06175 14.3359C0.598575 14.4066 0.214158 14.731 0.0647671 15.1754C-0.0839992 15.6192 0.0278881 16.1093 0.355424 16.4449L9.29015 25.6066L7.17867 38.548C7.10116 39.0205 7.30056 39.4962 7.69248 39.7712C7.9075 39.9231 8.1594 40 8.41193 40C8.61945 40 8.82823 39.9475 9.017 39.8437L20.0007 33.7687L30.9844 39.8437C31.1732 39.9475 31.3819 40 31.5895 40C31.842 40 32.0945 39.9231 32.3089 39.7712C32.7008 39.4962 32.9002 39.0205 32.8227 38.548L30.7112 25.6066L39.646 16.4449C39.9741 16.1086 40.0866 15.6186 39.9379 15.1748Z" fill="#F1FA91"/>
<path d="M89.9403 15.1748C89.7916 14.7304 89.4065 14.4066 88.9433 14.3353L76.6457 12.4564L71.1358 0.718829C70.9295 0.280031 70.4882 0 70.0038 0C69.5193 0 69.0787 0.280031 68.8718 0.718829L63.3618 12.4564L51.0642 14.3359C50.601 14.4066 50.2166 14.731 50.0672 15.1754C49.9184 15.6192 50.0303 16.1093 50.3579 16.4449L59.2926 25.6066L57.1811 38.548C57.1036 39.0205 57.303 39.4962 57.6949 39.7712C57.9099 39.9231 58.1618 40 58.4144 40C58.6219 40 58.8307 39.9475 59.0194 39.8437L70.0031 33.7687L80.9868 39.8437C81.1756 39.9475 81.3844 40 81.5919 40C81.8444 40 82.097 39.9231 82.3114 39.7712C82.7033 39.4962 82.9027 39.0205 82.8252 38.548L80.7137 25.6066L89.6484 16.4449C89.9766 16.1086 90.0891 15.6186 89.9403 15.1748Z" fill="#F1FA91"/>
<path d="M139.943 15.1748C139.794 14.7304 139.409 14.4066 138.946 14.3353L126.648 12.4564L121.138 0.718829C120.932 0.280031 120.491 0 120.006 0C119.522 0 119.081 0.280031 118.874 0.718829L113.364 12.4564L101.067 14.3359C100.603 14.4066 100.219 14.731 100.07 15.1754C99.9209 15.6192 100.033 16.1093 100.36 16.4449L109.295 25.6066L107.184 38.548C107.106 39.0205 107.305 39.4962 107.697 39.7712C107.912 39.9231 108.164 40 108.417 40C108.624 40 108.833 39.9475 109.022 39.8437L120.006 33.7687L130.989 39.8437C131.178 39.9475 131.387 40 131.594 40C131.847 40 132.099 39.9231 132.314 39.7712C132.706 39.4962 132.905 39.0205 132.828 38.548L130.716 25.6066L139.651 16.4449C139.979 16.1086 140.092 15.6186 139.943 15.1748Z" fill="#F1FA91"/>
<path d="M189.945 15.1748C189.797 14.7304 189.412 14.4066 188.948 14.3353L176.651 12.4564L171.141 0.718829C170.935 0.280031 170.493 0 170.009 0C169.524 0 169.084 0.280031 168.877 0.718829L163.367 12.4564L151.069 14.3359C150.606 14.4066 150.222 14.731 150.072 15.1754C149.924 15.6192 150.035 16.1093 150.363 16.4449L159.298 25.6066L157.186 38.548C157.109 39.0205 157.308 39.4962 157.7 39.7712C157.915 39.9231 158.167 40 158.419 40C158.627 40 158.836 39.9475 159.025 39.8437L170.008 33.7687L180.992 39.8437C181.181 39.9475 181.39 40 181.597 40C181.85 40 182.102 39.9231 182.316 39.7712C182.708 39.4962 182.908 39.0205 182.83 38.548L180.719 25.6066L189.654 16.4449C189.982 16.1086 190.094 15.6186 189.945 15.1748Z" fill="#F1FA91"/>
<path d="M239.948 15.1748C239.799 14.7304 239.414 14.4066 238.951 14.3353L226.653 12.4564L221.143 0.718829C220.937 0.280031 220.496 0 220.011 0C219.527 0 219.086 0.280031 218.879 0.718829L213.369 12.4564L201.072 14.3359C200.608 14.4066 200.224 14.731 200.075 15.1754C199.926 15.6192 200.038 16.1093 200.365 16.4449L209.3 25.6066L207.188 38.548C207.111 39.0205 207.31 39.4962 207.702 39.7712C207.917 39.9231 208.169 40 208.422 40C208.629 40 208.838 39.9475 209.027 39.8437L220.01 33.7687L230.994 39.8437C231.183 39.9475 231.392 40 231.599 40C231.852 40 232.104 39.9231 232.319 39.7712C232.711 39.4962 232.91 39.0205 232.832 38.548L230.721 25.6066L239.656 16.4449C239.984 16.1086 240.096 15.6186 239.948 15.1748Z" fill="#F1FA91"/>
</svg>
