<svg width="133" height="20" viewBox="0 0 133 20" fill="none" xmlns="http://www.w3.org/2000/svg">
<path d="M20.4658 7.58739C20.3914 7.36518 20.1989 7.20329 19.9673 7.16766L13.8185 6.22818L11.0635 0.359414C10.9603 0.140015 10.7397 0 10.4975 0C10.2553 0 10.0349 0.140015 9.93149 0.359414L7.1765 6.22818L1.0277 7.16797C0.796114 7.20329 0.603905 7.36549 0.52921 7.5877C0.454827 7.8096 0.51077 8.05463 0.674538 8.22246L5.1419 12.8033L4.08616 19.274C4.04741 19.5103 4.14711 19.7481 4.34306 19.8856C4.45058 19.9616 4.57653 20 4.70279 20C4.80655 20 4.91094 19.9737 5.00532 19.9219L10.4972 16.8843L15.989 19.9219C16.0834 19.9737 16.1878 20 16.2916 20C16.4178 20 16.5441 19.9616 16.6513 19.8856C16.8472 19.7481 16.9469 19.5103 16.9082 19.274L15.8524 12.8033L20.3198 8.22246C20.4839 8.05432 20.5401 7.80929 20.4658 7.58739Z" fill="#F1FA91"/>
<path d="M48.467 7.58739C48.3926 7.36518 48.2001 7.20329 47.9685 7.16766L41.8197 6.22818L39.0647 0.359414C38.9616 0.140015 38.7409 0 38.4987 0C38.2565 0 38.0362 0.140015 37.9327 0.359414L35.1777 6.22818L29.0289 7.16797C28.7973 7.20329 28.6051 7.36549 28.5304 7.5877C28.456 7.8096 28.512 8.05463 28.6758 8.22246L33.1431 12.8033L32.0874 19.274C32.0486 19.5103 32.1483 19.7481 32.3443 19.8856C32.4518 19.9616 32.5777 20 32.704 20C32.8078 20 32.9122 19.9737 33.0065 19.9219L38.4984 16.8843L43.9902 19.9219C44.0846 19.9737 44.189 20 44.2928 20C44.419 20 44.5453 19.9616 44.6525 19.8856C44.8485 19.7481 44.9482 19.5103 44.9094 19.274L43.8537 12.8033L48.321 8.22246C48.4851 8.05432 48.5414 7.80929 48.467 7.58739Z" fill="#F1FA91"/>
<path d="M76.4682 7.58739C76.3938 7.36518 76.2013 7.20329 75.9697 7.16766L69.8209 6.22818L67.0659 0.359414C66.9628 0.140015 66.7421 0 66.4999 0C66.2577 0 66.0374 0.140015 65.9339 0.359414L63.1789 6.22818L57.0301 7.16797C56.7986 7.20329 56.6063 7.36549 56.5317 7.5877C56.4573 7.8096 56.5132 8.05463 56.677 8.22246L61.1443 12.8033L60.0886 19.274C60.0498 19.5103 60.1495 19.7481 60.3455 19.8856C60.453 19.9616 60.579 20 60.7052 20C60.809 20 60.9134 19.9737 61.0078 19.9219L66.4996 16.8843L71.9915 19.9219C72.0859 19.9737 72.1902 20 72.294 20C72.4203 20 72.5465 19.9616 72.6537 19.8856C72.8497 19.7481 72.9494 19.5103 72.9106 19.274L71.8549 12.8033L76.3223 8.22246C76.4863 8.05432 76.5426 7.80929 76.4682 7.58739Z" fill="#F1FA91"/>
<path d="M104.469 7.58739C104.395 7.36518 104.203 7.20329 103.971 7.16766L97.8221 6.22818L95.0671 0.359414C94.964 0.140015 94.7434 0 94.5011 0C94.2589 0 94.0386 0.140015 93.9352 0.359414L91.1802 6.22818L85.0314 7.16797C84.7998 7.20329 84.6076 7.36549 84.5329 7.5877C84.4585 7.8096 84.5144 8.05463 84.6782 8.22246L89.1456 12.8033L88.0898 19.274C88.0511 19.5103 88.1508 19.7481 88.3467 19.8856C88.4542 19.9616 88.5802 20 88.7065 20C88.8102 20 88.9146 19.9737 89.009 19.9219L94.5008 16.8843L99.9927 19.9219C100.087 19.9737 100.191 20 100.295 20C100.421 20 100.548 19.9616 100.655 19.8856C100.851 19.7481 100.951 19.5103 100.912 19.274L99.8561 12.8033L104.323 8.22246C104.488 8.05432 104.544 7.80929 104.469 7.58739Z" fill="#F1FA91"/>
<path d="M132.471 7.58739C132.397 7.36518 132.204 7.20329 131.972 7.16766L125.824 6.22818L123.069 0.359414C122.965 0.140015 122.745 0 122.503 0C122.26 0 122.04 0.140015 121.937 0.359414L119.182 6.22818L113.033 7.16797C112.801 7.20329 112.609 7.36549 112.534 7.5877C112.46 7.8096 112.516 8.05463 112.68 8.22246L117.147 12.8033L116.091 19.274C116.053 19.5103 116.152 19.7481 116.348 19.8856C116.456 19.9616 116.582 20 116.708 20C116.812 20 116.916 19.9737 117.01 19.9219L122.502 16.8843L127.994 19.9219C128.089 19.9737 128.193 20 128.297 20C128.423 20 128.549 19.9616 128.656 19.8856C128.852 19.7481 128.952 19.5103 128.913 19.274L127.858 12.8033L132.325 8.22246C132.489 8.05432 132.545 7.80929 132.471 7.58739Z" fill="#F1FA91"/>
</svg>
