<svg width="65" height="70" viewBox="0 0 65 70" fill="none" xmlns="http://www.w3.org/2000/svg">
<path d="M32.4999 13.8706C31.107 13.8706 30.1785 12.942 30.1785 11.5491V6.90627C30.1785 5.51341 31.107 4.58484 32.4999 4.58484C33.8928 4.58484 34.8213 5.51341 34.8213 6.90627V11.5491C34.8213 12.942 33.8928 13.8706 32.4999 13.8706Z" fill="#F1FA91"/>
<path d="M26.6965 69.5848C22.2858 69.5848 18.5715 65.8705 18.5715 61.4598C18.5715 60.067 19.5001 59.1384 20.893 59.1384C22.2858 59.1384 23.2144 60.067 23.2144 61.4598C23.2144 63.317 24.8394 64.942 26.6965 64.942C28.5537 64.942 30.1787 63.317 30.1787 61.4598V41.7277C30.1787 40.3348 31.1072 39.4062 32.5001 39.4062C33.893 39.4062 34.8215 40.3348 34.8215 41.7277V61.4598C34.8215 65.8705 31.1072 69.5848 26.6965 69.5848Z" fill="#F1FA91"/>
<path d="M51.0715 32.442C44.5715 32.442 39.4644 27.3348 39.4644 20.8348C39.4644 15.2634 47.5894 3.19196 49.2144 0.870536C50.1429 -0.290179 52.2322 -0.290179 52.9286 0.870536C54.5536 3.19196 62.6786 15.2634 62.6786 20.8348C62.6786 27.3348 57.5715 32.442 51.0715 32.442Z" fill="#F1FA91"/>
<path d="M51.0714 37.0848C42.0179 37.0848 34.8214 29.8884 34.8214 20.8348C34.8214 17.8169 36.4464 13.8705 38.3036 9.69195C36.4464 9.4598 34.5893 9.22766 32.5 9.22766C14.625 9.22766 0 23.8527 0 41.7277C0 43.1205 0.928571 44.0491 2.32143 44.0491H62.6786C64.0714 44.0491 65 43.1205 65 41.7277C65 38.2455 64.5357 34.7634 63.375 31.5134C60.3571 34.9955 55.9464 37.0848 51.0714 37.0848Z" fill="#F1FA91"/>
</svg>
